<svg height='200' width='200'  fill="#000000" xmlns="http://www.w3.org/2000/svg" xmlns:xlink="http://www.w3.org/1999/xlink" version="1.1" x="0px" y="0px" viewBox="0 0 100 100" enable-background="new 0 0 100 100" xml:space="preserve"><path d="M91.867,93.253c-0.043-0.038-4.33-3.914-4.66-9.178c-0.342-5.434,3.886-9.494,3.929-9.534  c0.196-0.187,0.311-0.445,0.313-0.716c0.004-0.271-0.103-0.532-0.295-0.723l-5.007-4.966c1.572-4.229,2.434-8.799,2.434-13.568  c0-20.267-15.516-36.973-35.292-38.876l0.943-7.702c0.005-0.04,0.008-0.205,0.008-0.246C54.239,6.301,53.064,5,51.62,5h-3.51  c-1.444,0-2.619,1.301-2.619,2.745c0,0.041,0.003,0.145,0.008,0.185l0.943,7.679c-20.104,1.576-35.984,18.442-35.984,38.945  c0,5.028,0.966,9.841,2.704,14.259l-4.323,4.285c-0.193,0.191-0.301,0.455-0.297,0.727s0.118,0.531,0.315,0.717  c0.043,0.04,4.271,4.073,3.928,9.534c-0.328,5.24-4.618,9.141-4.661,9.179c-0.309,0.276-0.415,0.716-0.268,1.103  C8.005,94.744,8.376,95,8.79,95h16.376c0.297,0,0.578-0.132,0.769-0.36c0.981-1.178,4.012-4.223,6.715-4.845  c5.109,2.457,10.831,3.835,16.87,3.835c6.168,0,12.003-1.442,17.195-3.999c0.078,0.033,0.153,0.073,0.241,0.086  c3.356,0.478,7.065,4.879,7.102,4.924C74.248,94.868,74.529,95,74.826,95h16.376c0.415,0,0.787-0.256,0.935-0.645  C92.284,93.968,92.177,93.529,91.867,93.253z M60.508,89.967l-0.596-2.244c5.206-1.635,9.882-4.471,13.717-8.173l1.635,1.643  C71.144,85.177,66.112,88.223,60.508,89.967z M33.581,88.022c-0.154-0.057-0.35-0.167-0.538-0.269  c-3.252-1.621-6.232-3.706-8.857-6.169l1.642-1.635c3.955,3.694,8.77,6.474,14.109,8.008l-0.605,2.238  C37.344,89.625,35.42,88.901,33.581,88.022z M13.977,65.049l2.241-0.595c1.59,5.346,4.434,10.154,8.19,14.087l-1.642,1.635  C18.727,75.958,15.673,70.794,13.977,65.049z M39.556,18.879l0.596,2.241c-5.312,1.49-10.116,4.206-14.076,7.834l-1.635-1.643  C28.686,23.403,33.845,20.476,39.556,18.879z M49.52,17.508c3.158,0,6.224,0.399,9.152,1.146l-0.606,2.24  c-2.735-0.694-5.598-1.066-8.546-1.066c-2.549,0-5.032,0.284-7.427,0.807l-0.596-2.242C44.082,17.819,46.764,17.508,49.52,17.508z   M75.243,27.927L73.6,29.562c-3.811-3.671-8.45-6.485-13.612-8.12l0.607-2.243C66.155,20.944,71.149,23.972,75.243,27.927z   M85.065,44.097l-2.241,0.595c-1.537-5.172-4.245-9.843-7.82-13.704l1.642-1.635C80.503,33.5,83.421,38.527,85.065,44.097z   M86.581,54.569c0,2.801-0.323,5.527-0.914,8.152l-2.24-0.605c0.541-2.431,0.835-4.955,0.835-7.547c0-2.733-0.327-5.39-0.927-7.943  l2.242-0.595C86.227,48.774,86.581,51.63,86.581,54.569z M73.314,77H55.082c0.14-0.475,0.238-0.967,0.238-1.486  c0-2.137-1.274-3.971-3.096-4.817c0.24-0.623,0.585-1.596,0.904-2.801c0.063-0.238,0.145-0.507,0.234-0.801  C53.37,67.066,53.38,67.03,53.389,67h26.414C78.258,70.753,76.063,74.097,73.314,77z M49,80.732c0.325,0.062,0.658,0.101,1,0.101  s0.675-0.039,1-0.101V84h-2V80.732z M50,78.833c-1.83,0-3.318-1.489-3.318-3.319S48.17,72.194,50,72.194s3.319,1.489,3.319,3.319  S51.83,78.833,50,78.833z M25.709,77c-2.751-2.917-4.929-6.25-6.474-10h27.106c0.009,0.031,0.02,0.069,0.029,0.1  c0.089,0.293,0.171,0.561,0.233,0.797c0.338,1.274,0.709,2.304,0.95,2.922c-1.699,0.889-2.873,2.649-2.873,4.696  c0,0.519,0.098,1.011,0.238,1.486H25.709z M16.788,55h65.462c-0.045,3.492-0.641,6.851-1.703,10H53.927  c0.179-0.824,0.312-1.735,0.312-2.713c0-3.212-1.704-5.37-4.239-5.37c-2.317,0-3.971,1.599-4.395,4.083h-2.021  c-1.206-0.489-2.953-0.813-3.584-0.813c-1.001,0-1.813,0.811-1.813,1.813c0,1.001,0.812,1.813,1.813,1.813  c0.631,0,2.379-0.323,3.584-0.813h1.951c0.046,0.706,0.135,1.384,0.268,2H18.488C18.488,65,16.817,60.708,16.788,55z M50,70.194  c-0.178,0-0.346,0.035-0.519,0.052c-0.211-0.526-0.597-1.556-0.943-2.863c-0.069-0.258-0.156-0.548-0.253-0.865  c-0.354-1.164-0.794-2.612-0.794-4.231c0-0.791,0.181-3.37,2.509-3.37c2.177,0,2.239,3.025,2.239,3.37  c0,1.617-0.439,3.064-0.792,4.228c-0.097,0.319-0.186,0.611-0.254,0.87c-0.343,1.293-0.722,2.309-0.933,2.836  C50.173,70.216,50.089,70.194,50,70.194z M49.52,21.827c8.275,0,15.837,3.092,21.607,8.173H27.912  C33.683,24.919,41.245,21.827,49.52,21.827z M25.828,32h47.39c0,0,4.074,4.229,6.088,9H19.733C21.875,35.781,25.828,32,25.828,32z   M18.886,43H80.15c0,0,1.85,4.75,2.072,10H16.817C16.984,49.487,17.844,45.469,18.886,43z M27.752,79H46  c0.005,0,0.009-0.003,0.013-0.003c0.3,0.343,0.627,0.66,1.004,0.917C47.015,79.944,47,79.969,47,80v5c0,0.553,0.447,1,1,1h4  c0.553,0,1-0.447,1-1v-5c0-0.03-0.015-0.056-0.017-0.086c0.378-0.257,0.704-0.574,1.004-0.917C53.992,78.997,53.995,79,54,79h17.287  c-5.79,5.165-13.417,8.312-21.767,8.312S33.542,84.165,27.752,79z M76.665,79.766l-1.635-1.643  c3.652-3.952,6.394-8.752,7.905-14.067l2.239,0.605C83.554,70.373,80.6,75.529,76.665,79.766z M47.493,7.698  C47.517,7.378,47.785,7,48.11,7h3.51c0.326,0,0.594,0.378,0.617,0.698l-0.945,7.792c-0.588-0.026-1.178-0.014-1.772-0.014  c-0.361,0-0.718-0.029-1.076-0.02L47.493,7.698z M23.008,28.708l1.636,1.643c-3.713,3.813-6.56,8.47-8.219,13.656L14.181,43.4  C15.95,37.816,19.011,32.805,23.008,28.708z M13.626,45.321l2.24,0.606c-0.71,2.764-1.089,5.66-1.089,8.643  c0,2.736,0.328,5.395,0.929,7.95l-2.242,0.595c-0.651-2.745-1.006-5.604-1.006-8.546C12.458,51.377,12.864,48.278,13.626,45.321z   M24.625,93H10.938c1.479-2,3.602-5.064,3.843-8.909c0.312-4.959-2.481-8.747-3.843-10.309l3.066-3.008  c3.434,7.484,9.162,13.604,16.283,17.65C27.723,89.688,25.425,92,24.625,93z M41.272,90.693l0.605-2.239  c2.461,0.555,5.017,0.857,7.643,0.857c2.92,0,5.755-0.366,8.466-1.048l0.595,2.241c-2.901,0.732-5.936,1.125-9.061,1.125  C46.684,91.63,43.926,91.299,41.272,90.693z M75.281,93c-0.855-0.953-3.318-3.51-6.103-4.699c2.979-1.743,5.71-3.864,8.12-6.305  c0.034-0.026,0.074-0.039,0.105-0.07c0.04-0.04,0.059-0.091,0.091-0.136c3.267-3.357,5.937-7.295,7.837-11.646l3.723,3.692  c-1.362,1.561-4.155,5.404-3.844,10.363c0.241,3.845,2.229,6.974,3.707,8.8H75.281z M28,36h9c0.553,0,1-0.447,1-1s-0.447-1-1-1h-9  c-0.553,0-1,0.447-1,1S27.447,36,28,36z M66,47h6c0.553,0,1-0.447,1-1s-0.447-1-1-1h-6c-0.553,0-1,0.447-1,1S65.447,47,66,47z   M68,50c0,0.553,0.447,1,1,1h9c0.553,0,1-0.447,1-1s-0.447-1-1-1h-9C68.447,49,68,49.447,68,50z M33,73h-5c-0.553,0-1,0.447-1,1  s0.447,1,1,1h5c0.553,0,1-0.447,1-1S33.553,73,33,73z"></path></svg>
